<svg xmlns="http://www.w3.org/2000/svg" xml:space="preserve" width="144" height="122" style="shape-rendering:geometricPrecision; text-rendering:geometricPrecision; image-rendering:optimizeQuality; fill-rule:evenodd; clip-rule:evenodd" viewBox="0 0 11266 13000" xmlns:xlink="http://www.w3.org/1999/xlink">
 <defs>
  <style type="text/css">
   
    .fil2 {fill:#11894A}
    .fil1 {fill:#118A4B}
    .fil5 {fill:#449E6A}
    .fil3 {fill:#44B34B}
    .fil4 {fill:#FEFEFE}
    .fil0 {fill:white}
   
  </style>
 </defs>
 <g id="Layer_x0020_1">
  <metadata id="CorelCorpID_0Corel-Layer"></metadata>
  <path class="fil0" d="M8278 6658c16,26 347,238 404,279l0 431 -2061 1 0 2062 -1810 -1 -2 -2061 -424 -2c35,-45 976,-776 1132,-904 186,-153 379,-294 565,-448 179,-149 389,-301 560,-444l259 -4c188,2 -6,-26 245,-26l1486 -1c68,2 52,14 56,21l-4 1125c-26,-5 -8,2 -15,-14 -31,-7 -10,-2 -38,-19 -27,-16 -10,-11 -35,-15 -86,2 -212,-4 -314,-4 -6,18 -13,-25 -4,27zm-3466 -3147c21,-26 46,-16 107,-16 301,0 1561,-11 1705,2l0 1789c-5,41 1,13 -18,27 -8,21 -358,290 -405,328 -138,112 -274,221 -414,328 -143,110 -270,219 -414,329 -36,28 -68,54 -103,81 -39,30 -64,52 -102,82 -325,255 -719,560 -1028,815 -149,123 -100,92 -286,92 -318,0 -826,14 -1102,-1l4 -1807 2058 -3 0 -2045zm-2811 901c-1,1374 -9,2779 0,4150l0 36c357,194 3598,2092 3633,2091 20,-1 1647,-946 1817,-1044l1815 -1049 1 -4192 -2722 -1574c-153,-89 -301,-176 -454,-262 -59,-33 -429,-258 -456,-258 -24,0 -1644,943 -1819,1044 -78,45 -1795,1022 -1815,1059z"></path>
  <path class="fil1" d="M2000 4412c20,-37 1737,-1014 1815,-1059 175,-100 1795,-1044 1819,-1044 26,0 397,225 456,258 153,86 300,173 454,262l2722 1574 -1 4192 -1815 1049c-170,98 -1797,1044 -1817,1044 -35,1 -3276,-1897 -3633,-2091l0 -36c-9,-1370 -1,-2776 0,-4150zm-329 4374c74,52 882,510 990,573 902,526 1824,1046 2724,1574l248 140c114,-55 368,-213 502,-288 168,-94 327,-188 493,-284 659,-379 1320,-769 1977,-1142 96,-54 921,-539 989,-567l-3 -4580c-56,-43 -1913,-1107 -1981,-1146 -72,-42 -1955,-1139 -1982,-1136l-1982 1142c-326,195 -664,382 -991,572l-984 570 1 4574z"></path>
  <path class="fil2" d="M6604 5312c23,-64 2,-1580 9,-1813 -295,24 -1691,-29 -1802,11l0 2045 -2058 3 -3 1807c276,15 784,1 1102,1 186,0 137,31 286,-92 309,-255 703,-560 1028,-815 38,-30 63,-52 102,-82 35,-27 67,-53 103,-81 144,-110 270,-219 414,-329 140,-108 276,-216 414,-328 47,-38 397,-307 405,-328z"></path>
  <path class="fil3" d="M6692 6396c106,-51 229,-162 456,-55 292,136 333,576 14,751 -153,84 -354,53 -460,-50 -65,21 -218,176 -467,54 -419,-205 -226,-856 244,-793 108,15 142,51 212,93zm1586 262c-52,-19 -154,-99 -205,-132 -159,-103 -1377,-938 -1430,-956 -170,144 -381,296 -560,444 -186,155 -379,295 -565,448 -157,129 -1097,860 -1132,904l424 2 2 2061 1810 1 0 -2062 2061 -1 0 -431c-57,-41 -388,-253 -404,-279z"></path>
  <path class="fil2" d="M8595 6635c25,4 8,-2 35,15 28,17 7,12 38,19 7,16 -11,9 15,14l4 -1125 -1675 -2c11,38 706,482 802,546 131,90 260,175 392,263l297 201c31,20 71,41 91,69z"></path>
  <path class="fil4" d="M6642 5569c53,18 1272,853 1430,956 51,33 153,114 205,132 -9,-52 -2,-9 4,-27 102,0 228,6 314,4 -20,-28 -61,-49 -91,-69l-297 -201c-132,-88 -261,-173 -392,-263 -96,-64 -791,-508 -802,-546l1675 2c-4,-7 12,-19 -56,-21l-1486 1c-250,0 -57,28 -245,26l-259 4z"></path>
  <path class="fil4" d="M6692 6900c-77,-94 -68,-269 0,-363 61,41 72,193 44,285 -5,15 -9,28 -17,44l-27 34zm67 -436c67,-85 249,-100 359,-42 252,134 225,478 1,591 -157,79 -243,25 -361,-30 10,-46 42,-78 57,-124 67,-202 -7,-279 -56,-395zm-128 517c-59,26 -77,56 -166,68 -193,24 -378,-120 -372,-340 4,-143 93,-246 187,-290 111,-52 282,-37 350,46 -49,110 -127,212 -54,404 17,45 45,76 56,112zm61 -586c-71,-42 -104,-78 -212,-93 -470,-63 -663,588 -244,793 249,121 402,-33 467,-54 106,103 307,134 460,50 319,-175 278,-615 -14,-751 -228,-106 -350,4 -456,55z"></path>
  <path class="fil2" d="M6759 6465c49,116 123,193 56,395 -15,46 -48,78 -57,124 119,56 205,110 361,30 223,-113 251,-457 -1,-591 -110,-59 -292,-43 -359,42z"></path>
  <path class="fil1" d="M6631 6982c-11,-36 -39,-68 -56,-112 -72,-192 5,-295 54,-404 -68,-83 -239,-98 -350,-46 -94,44 -183,147 -187,290 -6,220 179,365 372,340 90,-11 108,-41 166,-68z"></path>
  <path class="fil5" d="M6604 5312c20,-14 14,15 18,-27l0 -1789c-144,-13 -1404,-2 -1705,-2 -60,0 -85,-10 -107,16 111,-40 1507,13 1802,-11 -7,233 13,1749 -9,1813z"></path>
  <path class="fil1" d="M6692 6900l27 -34c8,-16 12,-29 17,-44 29,-92 17,-245 -44,-285 -68,94 -77,269 0,363z"></path>
 </g>
</svg>